<svg id="visual" viewBox="0 0 900 600" width="900" height="600" xmlns="http://www.w3.org/2000/svg" xmlns:xlink="http://www.w3.org/1999/xlink" version="1.1"><rect width="900" height="600" fill="#000000"></rect><g><g transform="translate(174 21)"><path d="M0 -40.2L34.8 -20.1L34.8 20.1L0 40.2L-34.8 20.1L-34.8 -20.1Z" fill="none" stroke="#3e6e3f" stroke-width="3"></path></g><g transform="translate(336 368)"><path d="M0 -31L26.8 -15.5L26.8 15.5L0 31L-26.8 15.5L-26.8 -15.5Z" fill="none" stroke="#3e6e3f" stroke-width="3"></path></g><g transform="translate(196 480)"><path d="M0 -27L23.4 -13.5L23.4 13.5L0 27L-23.4 13.5L-23.4 -13.5Z" stroke="#3e6e3f" fill="none" stroke-width="3"></path></g><g transform="translate(5 575)"><path d="M0 -36L31.2 -18L31.2 18L0 36L-31.2 18L-31.2 -18Z" stroke="#3e6e3f" fill="none" stroke-width="3"></path></g><g transform="translate(416 596)"><path d="M0 -27L23.4 -13.5L23.4 13.5L0 27L-23.4 13.5L-23.4 -13.5Z" stroke="#3e6e3f" fill="none" stroke-width="3"></path></g><g transform="translate(693 150)"><path d="M0 -33L28.6 -16.5L28.6 16.5L0 33L-28.6 16.5L-28.6 -16.5Z" stroke="#3e6e3f" fill="none" stroke-width="3"></path></g><g transform="translate(717 541)"><path d="M0 -23L19.9 -11.5L19.9 11.5L0 23L-19.9 11.5L-19.9 -11.5Z" stroke="#3e6e3f" fill="none" stroke-width="3"></path></g><g transform="translate(15 181)"><path d="M0 -23L19.9 -11.5L19.9 11.5L0 23L-19.9 11.5L-19.9 -11.5Z" stroke="#3e6e3f" fill="none" stroke-width="3"></path></g><g transform="translate(271 152)"><path d="M0 -36L31.2 -18L31.2 18L0 36L-31.2 18L-31.2 -18Z" stroke="#3e6e3f" fill="none" stroke-width="3"></path></g><g transform="translate(418 53)"><path d="M0 -39L33.8 -19.5L33.8 19.5L0 39L-33.8 19.5L-33.8 -19.5Z" stroke="#3e6e3f" fill="none" stroke-width="3"></path></g><g transform="translate(248 382)"><path d="M0 -36L31.2 -18L31.2 18L0 36L-31.2 18L-31.2 -18Z" stroke="#3e6e3f" fill="none" stroke-width="3"></path></g><g transform="translate(132 302)"><path d="M0 -32L27.7 -16L27.7 16L0 32L-27.7 16L-27.7 -16Z" stroke="#3e6e3f" fill="none" stroke-width="3"></path></g><g transform="translate(83 452)"><path d="M0 -20L17.3 -10L17.3 10L0 20L-17.3 10L-17.3 -10Z" stroke="#3e6e3f" fill="none" stroke-width="3"></path></g><g transform="translate(711 38)"><path d="M0 -38L32.9 -19L32.9 19L0 38L-32.9 19L-32.9 -19Z" stroke="#3e6e3f" fill="none" stroke-width="3"></path></g><g transform="translate(53 344)"><path d="M0 -27L23.4 -13.5L23.4 13.5L0 27L-23.4 13.5L-23.4 -13.5Z" stroke="#3e6e3f" fill="none" stroke-width="3"></path></g><g transform="translate(816 257)"><path d="M0 -25L21.7 -12.5L21.7 12.5L0 25L-21.7 12.5L-21.7 -12.5Z" stroke="#3e6e3f" fill="none" stroke-width="3"></path></g><g transform="translate(864 138)"><path d="M0 -33L28.6 -16.5L28.6 16.5L0 33L-28.6 16.5L-28.6 -16.5Z" stroke="#3e6e3f" fill="none" stroke-width="3"></path></g><g transform="translate(817 492)"><path d="M0 -37L32 -18.5L32 18.5L0 37L-32 18.5L-32 -18.5Z" stroke="#3e6e3f" fill="none" stroke-width="3"></path></g><g transform="translate(240 268)"><path d="M0 -33L28.6 -16.5L28.6 16.5L0 33L-28.6 16.5L-28.6 -16.5Z" stroke="#3e6e3f" fill="none" stroke-width="3"></path></g><g transform="translate(506 364)"><path d="M0 -38L32.9 -19L32.9 19L0 38L-32.9 19L-32.9 -19Z" stroke="#3e6e3f" fill="none" stroke-width="3"></path></g><g transform="translate(801 41)"><path d="M0 -25L21.7 -12.5L21.7 12.5L0 25L-21.7 12.5L-21.7 -12.5Z" stroke="#3e6e3f" fill="none" stroke-width="3"></path></g><g transform="translate(536 535)"><path d="M0 -29L25.1 -14.5L25.1 14.5L0 29L-25.1 14.5L-25.1 -14.5Z" stroke="#3e6e3f" fill="none" stroke-width="3"></path></g><g transform="translate(377 201)"><path d="M0 -27L23.4 -13.5L23.4 13.5L0 27L-23.4 13.5L-23.4 -13.5Z" stroke="#3e6e3f" fill="none" stroke-width="3"></path></g><g transform="translate(663 263)"><path d="M0 -28L24.2 -14L24.2 14L0 28L-24.2 14L-24.2 -14Z" stroke="#3e6e3f" fill="none" stroke-width="3"></path></g><g transform="translate(483 212)"><path d="M0 -31L26.8 -15.5L26.8 15.5L0 31L-26.8 15.5L-26.8 -15.5Z" stroke="#3e6e3f" fill="none" stroke-width="3"></path></g><g transform="translate(56 111)"><path d="M0 -32L27.7 -16L27.7 16L0 32L-27.7 16L-27.7 -16Z" stroke="#3e6e3f" fill="none" stroke-width="3"></path></g><g transform="translate(421 289)"><path d="M0 -24L20.8 -12L20.8 12L0 24L-20.8 12L-20.8 -12Z" stroke="#3e6e3f" fill="none" stroke-width="3"></path></g><g transform="translate(850 368)"><path d="M0 -38L32.9 -19L32.9 19L0 38L-32.9 19L-32.9 -19Z" stroke="#3e6e3f" fill="none" stroke-width="3"></path></g><g transform="translate(618 440)"><path d="M0 -35L30.3 -17.5L30.3 17.5L0 35L-30.3 17.5L-30.3 -17.5Z" stroke="#3e6e3f" fill="none" stroke-width="3"></path></g><g transform="translate(292 70)"><path d="M0 -28L24.2 -14L24.2 14L0 28L-24.2 14L-24.2 -14Z" stroke="#3e6e3f" fill="none" stroke-width="3"></path></g><g transform="translate(708 334)"><path d="M0 -23L19.9 -11.5L19.9 11.5L0 23L-19.9 11.5L-19.9 -11.5Z" stroke="#3e6e3f" fill="none" stroke-width="3"></path></g><g transform="translate(192 199)"><path d="M0 -22L19.1 -11L19.1 11L0 22L-19.1 11L-19.1 -11Z" stroke="#3e6e3f" fill="none" stroke-width="3"></path></g><g transform="translate(534 29)"><path d="M0 -27L23.4 -13.5L23.4 13.5L0 27L-23.4 13.5L-23.4 -13.5Z" stroke="#3e6e3f" fill="none" stroke-width="3"></path></g><g transform="translate(68 12)"><path d="M0 -30L26 -15L26 15L0 30L-26 15L-26 -15Z" stroke="#3e6e3f" fill="none" stroke-width="3"></path></g><g transform="translate(328 506)"><path d="M0 -37L32 -18.5L32 18.5L0 37L-32 18.5L-32 -18.5Z" stroke="#3e6e3f" fill="none" stroke-width="3"></path></g><g transform="translate(740 215)"><path d="M0 -28L24.2 -14L24.2 14L0 28L-24.2 14L-24.2 -14Z" stroke="#3e6e3f" fill="none" stroke-width="3"></path></g><g transform="translate(891 459)"><path d="M0 -20L17.3 -10L17.3 10L0 20L-17.3 10L-17.3 -10Z" stroke="#3e6e3f" fill="none" stroke-width="3"></path></g><g transform="translate(114 563)"><path d="M0 -37L32 -18.5L32 18.5L0 37L-32 18.5L-32 -18.5Z" stroke="#3e6e3f" fill="none" stroke-width="3"></path></g><g transform="translate(595 118)"><path d="M0 -22L19.1 -11L19.1 11L0 22L-19.1 11L-19.1 -11Z" stroke="#3e6e3f" fill="none" stroke-width="3"></path></g><g transform="translate(426 405)"><path d="M0 -26L22.5 -13L22.5 13L0 26L-22.5 13L-22.5 -13Z" stroke="#3e6e3f" fill="none" stroke-width="3"></path></g><g transform="translate(262 582)"><path d="M0 -35L30.3 -17.5L30.3 17.5L0 35L-30.3 17.5L-30.3 -17.5Z" stroke="#3e6e3f" fill="none" stroke-width="3"></path></g><g transform="translate(628 578)"><path d="M0 -37L32 -18.5L32 18.5L0 37L-32 18.5L-32 -18.5Z" stroke="#3e6e3f" fill="none" stroke-width="3"></path></g><g transform="translate(146 393)"><path d="M0 -29L25.1 -14.5L25.1 14.5L0 29L-25.1 14.5L-25.1 -14.5Z" stroke="#3e6e3f" fill="none" stroke-width="3"></path></g><g transform="translate(573 210)"><path d="M0 -25L21.7 -12.5L21.7 12.5L0 25L-21.7 12.5L-21.7 -12.5Z" stroke="#3e6e3f" fill="none" stroke-width="3"></path></g><g transform="translate(600 318)"><path d="M0 -33L28.6 -16.5L28.6 16.5L0 33L-28.6 16.5L-28.6 -16.5Z" stroke="#3e6e3f" fill="none" stroke-width="3"></path></g><g transform="translate(753 405)"><path d="M0 -25L21.7 -12.5L21.7 12.5L0 25L-21.7 12.5L-21.7 -12.5Z" stroke="#3e6e3f" fill="none" stroke-width="3"></path></g></g></svg>